<svg xmlns="http://www.w3.org/2000/svg" viewBox="0 0 200 200">
  <path d="M100 38c17 0 32 6 43 17l-18 18c-7-7-16-11-25-11-21 0-38 16-38 38s17 38 38 38c16 0 28-8 32-20H100V96h64c1 4 2 8 2 14 0 36-24 62-58 62-34 0-62-28-62-62s28-72 54-72z" fill="#4285F4"/>
  <path d="M100 38c-16 0-30 6-40 16l18 18c7-7 14-10 22-10z" fill="#EA4335"/>
  <path d="M60 54c-8 10-14 24-14 46 0 16 4 28 14 40l18-18c-6-8-8-14-8-22s2-14 8-20z" fill="#FBBC05"/>
  <path d="M60 140c10 12 24 22 40 22 14 0 24-4 32-10l-18-16c-4 2-8 4-14 4-14 0-26-8-32-18z" fill="#34A853"/>
</svg>
