<svg xmlns="http://www.w3.org/2000/svg" viewBox="0 0 200 200">
  <defs>
    <linearGradient id="metaGrad" x1="0%" y1="100%" x2="100%" y2="0%">
      <stop offset="0%" stop-color="#0081FB"/>
      <stop offset="100%" stop-color="#0064E0"/>
    </linearGradient>
  </defs>
  <path d="M100 20C56 20 30 60 30 100s26 80 70 80c20 0 36-14 42-32 2-6 4-12 4-18 0-8-2-14-6-20-8-12-20-18-28-30-6-8-10-16-10-24s4-16 12-16c12 0 20 14 28 30 8 14 14 30 14 48 0 10-2 20-6 28C162 154 170 128 170 100c0-40-26-80-70-80z" fill="url(#metaGrad)"/>
  <circle cx="62" cy="100" r="14" fill="url(#metaGrad)"/>
  <circle cx="138" cy="100" r="14" fill="url(#metaGrad)"/>
</svg>
