<svg xmlns="http://www.w3.org/2000/svg" viewBox="0 0 200 200">
  <path d="M72 30c-8 0-14 6-14 14s6 14 14 14h14V44c0-8-6-14-14-14z" fill="#E01E5A"/>
  <path d="M72 72H44c-8 0-14 6-14 14s6 14 14 14h28c8 0 14-6 14-14s-6-14-14-14z" fill="#E01E5A"/>
  <path d="M170 86c0-8-6-14-14-14s-14 6-14 14v14h14c8 0 14-6 14-14z" fill="#2EB67D"/>
  <path d="M128 86V58c0-8-6-14-14-14s-14 6-14 14v28c0 8 6 14 14 14s14-6 14-14z" fill="#2EB67D"/>
  <path d="M114 170c8 0 14-6 14-14s-6-14-14-14h-14v14c0 8 6 14 14 14z" fill="#ECB22E"/>
  <path d="M114 128h28c8 0 14-6 14-14s-6-14-14-14h-28c-8 0-14 6-14 14s6 14 14 14z" fill="#ECB22E"/>
  <path d="M30 114c0 8 6 14 14 14s14-6 14-14v-14H44c-8 0-14 6-14 14z" fill="#36C5F0"/>
  <path d="M72 114v28c0 8 6 14 14 14s14-6 14-14v-28c0-8-6-14-14-14s-14 6-14 14z" fill="#36C5F0"/>
</svg>
