<svg xmlns="http://www.w3.org/2000/svg" viewBox="0 0 200 200">
  <circle cx="100" cy="100" r="90" fill="#25D366"/>
  <path d="M100 36c-35 0-64 28-64 64 0 11 3 22 9 31l-10 36 37-10c9 5 19 8 28 8 35 0 64-28 64-64S135 36 100 36z" fill="#25D366"/>
  <path d="M100 46c-30 0-54 24-54 54 0 10 3 20 8 28l-8 30 31-8c8 4 17 7 23 7 30 0 54-24 54-54S130 46 100 46z" fill="white"/>
  <path d="M82 76c-2-4-4-4-6-4h-4c-2 0-6 2-8 4s-12 10-12 26 12 30 14 32 22 36 54 36c26 0 34-20 36-26s0-14-2-16-4-4-6-4l-8-4c-2-2-6-2-8 2l-6 8c-2 2-4 2-6 2s-10-4-18-12-12-16-14-18 0-6 2-8l4-6c2-2 2-4 2-6s-2-6-4-10z" fill="#25D366"/>
</svg>
